IDResults
version=1
nRows=211
nColumns=3
inDegrees=yes

Units are S.I. units (second, meters, Newtons, ...)
If the header above contains a line with 'inDegrees', this indicates whether rotational values are in degrees (yes) or radians (no).

endheader
time	r_shoulder_elev	r_elbow_flex
     13.59200000	      2.73270733	     99.82042276
     13.60000000	      2.72085618	     99.82332617
     13.60800000	      2.70918618	     99.82463163
     13.61700000	      2.69752386	     99.82600262
     13.62500000	      2.68649291	     99.82335024
     13.63300000	      2.67444045	     99.82045487
     13.64200000	      2.66196244	     99.81824507
     13.65000000	      2.64877242	     99.81471188
     13.65800000	      2.63250818	     99.81524696
     13.66700000	      2.61807257	     99.81151224
     13.67500000	      2.60051925	     99.81117769
     13.68300000	      2.58297692	     99.81218532
     13.69200000	      2.56439577	     99.81422694
     13.70000000	      2.54591757	     99.81613026
     13.70800000	      2.52778446	     99.82004914
     13.71700000	      2.50753193	     99.82628008
     13.72500000	      2.48846282	     99.83083602
     13.73300000	      2.46751600	     99.84013900
     13.74200000	      2.44756714	     99.84817593
     13.75000000	      2.42678724	     99.85700208
     13.75800000	      2.40588767	     99.86590598
     13.76700000	      2.38504443	     99.87474937
     13.77500000	      2.36449453	     99.88556863
     13.78300000	      2.34395620	     99.89629236
     13.79200000	      2.32336700	     99.90705544
     13.80000000	      2.30389578	     99.91629444
     13.80800000	      2.28334422	     99.92696245
     13.81700000	      2.26285746	     99.93746793
     13.82500000	      2.24328766	     99.94715035
     13.83300000	      2.22269604	     99.95841451
     13.84200000	      2.20226813	     99.97163343
     13.85000000	      2.18180909	     99.98472215
     13.85800000	      2.16148641	     99.99717424
     13.86700000	      2.14026090	    100.01387072
     13.87500000	      2.11873591	    100.02719198
     13.88300000	      2.09750792	    100.04400643
     13.89200000	      2.07742845	    100.05830782
     13.90000000	      2.05611941	    100.07459694
     13.90800000	      2.03630695	    100.09153361
     13.91700000	      2.01639788	    100.10817509
     13.92500000	      1.99748245	    100.12401016
     13.93300000	      1.97816407	    100.13754633
     13.94200000	      1.96038750	    100.15288248
     13.95000000	      1.94245352	    100.16730510
     13.95800000	      1.92420780	    100.17988279
     13.96700000	      1.90743207	    100.19391573
     13.97500000	      1.89025949	    100.20486834
     13.98300000	      1.87415884	    100.21575999
     13.99200000	      1.85836748	    100.22878210
     14.00000000	      1.84329279	    100.23733896
     14.00800000	      1.82849012	    100.24944327
     14.01700000	      1.81577218	    100.25823859
     14.02500000	      1.80296617	    100.26748668
     14.03300000	      1.79228917	    100.27425317
     14.04200000	      1.78155711	    100.28120918
     14.05000000	      1.77083691	    100.28811385
     14.05800000	      1.76088794	    100.29154557
     14.06700000	      1.75220424	    100.29694283
     14.07500000	      1.74348427	    100.30155529
     14.08300000	      1.73475366	    100.30641689
     14.09200000	      1.72603948	    100.31118990
     14.10000000	      1.71752585	    100.31864484
     14.10800000	      1.70892881	    100.32555140
     14.11700000	      1.70161102	    100.33387322
     14.12500000	      1.69295326	    100.34067769
     14.13300000	      1.68454953	    100.35004117
     14.14200000	      1.67585822	    100.35695376
     14.15000000	      1.66750954	    100.36625322
     14.15800000	      1.65901856	    100.37544560
     14.16700000	      1.65057255	    100.38460284
     14.17500000	      1.64086811	    100.39238849
     14.18300000	      1.63246957	    100.40173806
     14.19200000	      1.62368196	    100.40872498
     14.20000000	      1.61502814	    100.41586037
     14.20800000	      1.60604434	    100.42042994
     14.21700000	      1.59614052	    100.42654527
     14.22500000	      1.58722693	    100.43157399
     14.23300000	      1.57935528	    100.43248745
     14.24200000	      1.56999704	    100.43582956
     14.25000000	      1.55986840	    100.43968912
     14.25800000	      1.55070372	    100.44275920
     14.26700000	      1.54050016	    100.44402997
     14.27500000	      1.53108385	    100.44517927
     14.28300000	      1.52066037	    100.44698353
     14.29200000	      1.51027098	    100.44887713
     14.30000000	      1.49859853	    100.45239888
     14.30800000	      1.48712757	    100.45561749
     14.31700000	      1.47558938	    100.45899806
     14.32500000	      1.46294433	    100.46234184
     14.33300000	      1.45046991	    100.46658784
     14.34200000	      1.43797152	    100.47077590
     14.35000000	      1.42324987	    100.47494533
     14.35800000	      1.41058585	    100.47696191
     14.36700000	      1.39686662	    100.48044956
     14.37500000	      1.38221647	    100.48464065
     14.38300000	      1.36991992	    100.48863719
     14.39200000	      1.35523626	    100.49283309
     14.40000000	      1.34276995	    100.49451534
     14.40800000	      1.32852797	    100.50078170
     14.41700000	      1.31628466	    100.50449310
     14.42500000	      1.30213677	    100.51155615
     14.43300000	      1.29028030	    100.51735760
     14.44200000	      1.27743906	    100.52380369
     14.45000000	      1.26592225	    100.53193277
     14.45800000	      1.25528611	    100.53851299
     14.46700000	      1.24525933	    100.54690307
     14.47500000	      1.23495857	    100.55550876
     14.48300000	      1.22480530	    100.56350848
     14.49200000	      1.21570134	    100.57060649
     14.50000000	      1.20764362	    100.57670768
     14.50800000	      1.19896087	    100.58583401
     14.51700000	      1.19107856	    100.59401852
     14.52500000	      1.18447115	    100.60060159
     14.53300000	      1.17663008	    100.60876681
     14.54200000	      1.16891584	    100.61673734
     14.55000000	      1.16248074	    100.62543311
     14.55800000	      1.15498283	    100.63545810
     14.56700000	      1.14953510	    100.64327407
     14.57500000	      1.14292953	    100.65258803
     14.58300000	      1.13748421	    100.66040637
     14.59200000	      1.13201876	    100.66831060
     14.60000000	      1.12746517	    100.67541866
     14.60800000	      1.12331321	    100.68281066
     14.61700000	      1.11988072	    100.68850727
     14.62500000	      1.11755676	    100.69450445
     14.63300000	      1.11388552	    100.70061055
     14.64200000	      1.11230664	    100.70346495
     14.65000000	      1.11216418	    100.70688118
     14.65800000	      1.10987499	    100.70762580
     14.66700000	      1.11099645	    100.70891022
     14.67500000	      1.11099645	    100.70891022
     14.68300000	      1.11190167	    100.71028979
     14.69200000	      1.11190167	    100.71028979
     14.70000000	      1.11299929	    100.71048376
     14.70800000	      1.11530900	    100.70523423
     14.71700000	      1.11716361	    100.70459747
     14.72500000	      1.11983143	    100.70054036
     14.73300000	      1.12277801	    100.69539424
     14.74200000	      1.12577215	    100.68978762
     14.75000000	      1.12976554	    100.68330735
     14.75800000	      1.13280151	    100.67645846
     14.76700000	      1.13522087	    100.67005182
     14.77500000	      1.13933788	    100.66420468
     14.78300000	      1.14288562	    100.65493676
     14.79200000	      1.14596305	    100.65033376
     14.80000000	      1.14991015	    100.64396542
     14.80800000	      1.15283039	    100.63849224
     14.81700000	      1.15671449	    100.63217224
     14.82500000	      1.16065993	    100.62580174
     14.83300000	      1.16429799	    100.61665147
     14.84200000	      1.16833188	    100.61100303
     14.85000000	      1.17347025	    100.60311592
     14.85800000	      1.17706222	    100.59390438
     14.86700000	      1.18327307	    100.58597252
     14.87500000	      1.18813474	    100.57617232
     14.88300000	      1.19268991	    100.56473442
     14.89200000	      1.19856765	    100.55394355
     14.90000000	      1.20524698	    100.54015940
     14.90800000	      1.21076251	    100.52611283
     14.91700000	      1.21758607	    100.51360913
     14.92500000	      1.22426706	    100.49981990
     14.93300000	      1.23135244	    100.48750149
     14.94200000	      1.23817299	    100.47352229
     14.95000000	      1.24622625	    100.46035100
     14.95800000	      1.25318111	    100.44856065
     14.96700000	      1.25919780	    100.43758885
     14.97500000	      1.26634322	    100.42784225
     14.98300000	      1.27368213	    100.41754086
     14.99200000	      1.27987828	    100.40865279
     15.00000000	      1.28723700	    100.40108698
     15.00800000	      1.29366944	    100.39421098
     15.01700000	      1.30215283	    100.38521554
     15.02500000	      1.30956902	    100.37749726
     15.03300000	      1.31601974	    100.37067821
     15.04200000	      1.32474709	    100.36389853
     15.05000000	      1.33131527	    100.35922265
     15.05800000	      1.33792672	    100.35450903
     15.06700000	      1.34450273	    100.34982459
     15.07500000	      1.35125090	    100.34491395
     15.08300000	      1.35922430	    100.34115480
     15.09200000	      1.36699897	    100.33767449
     15.10000000	      1.37471791	    100.33116987
     15.10800000	      1.38282504	    100.32729050
     15.11700000	      1.39054772	    100.32117957
     15.12500000	      1.39835128	    100.31500322
     15.13300000	      1.40723284	    100.30781791
     15.14200000	      1.41496175	    100.30215819
     15.15000000	      1.42291191	    100.29571677
     15.15800000	      1.43101085	    100.29220674
     15.16700000	      1.43888949	    100.28543367
     15.17500000	      1.44583969	    100.28035488
     15.18300000	      1.45300272	    100.27760878
     15.19200000	      1.45916510	    100.27530940
     15.20000000	      1.46518473	    100.27053157
     15.20800000	      1.47136972	    100.26871597
     15.21700000	      1.47742899	    100.26690149
     15.22500000	      1.48074393	    100.26772752
     15.23300000	      1.48769323	    100.26449536
     15.24200000	      1.49166208	    100.26534967
     15.25000000	      1.49601020	    100.26545743
     15.25800000	      1.49956845	    100.26671260
     15.26700000	      1.50393323	    100.26773805
     15.27500000	      1.50842587	    100.26902247
     15.28300000	      1.51221150	    100.26997575
     15.29200000	      1.51665916	    100.27134656
     15.30000000	      1.52041500	    100.27237264
     15.30800000	      1.52540995	    100.27382406
     15.31700000	      1.52927458	    100.27466979
     15.32500000	      1.53303662	    100.27546956
     15.33300000	      1.53963930	    100.27003134
     15.34200000	      1.54359434	    100.27101027
